<svg xmlns="http://www.w3.org/2000/svg" viewBox="0 0 171.87 43.38"><defs><style>.cls-1{fill:#fff;}</style></defs><title>logo</title><g id="Layer_2" data-name="Layer 2"><g id="Layer_1-2" data-name="Layer 1"><path class="cls-1" d="M10.15,32a6.94,6.94,0,0,0,4.6-1.55,5.45,5.45,0,0,0,2-4h2.53a7.44,7.44,0,0,1-1.36,4,8.52,8.52,0,0,1-3.33,2.8,10,10,0,0,1-4.45,1,9.19,9.19,0,0,1-7.42-3.25Q0,27.69,0,22.19V21.4a14.86,14.86,0,0,1,1.23-6.22A9.48,9.48,0,0,1,4.76,11a9.74,9.74,0,0,1,5.37-1.47,9.17,9.17,0,0,1,6.45,2.33A8.49,8.49,0,0,1,19.29,18H16.76a6.36,6.36,0,0,0-6.63-6.22A6.56,6.56,0,0,0,4.6,14.35q-2,2.57-2,7.21v.77a11.37,11.37,0,0,0,2,7.1A6.6,6.6,0,0,0,10.15,32Z"/><path class="cls-1" d="M35.53,12.22a9.91,9.91,0,0,0-1.78-.15,6.42,6.42,0,0,0-4.16,1.37,7.51,7.51,0,0,0-2.43,4V33.75H24.54V10h2.57l0,3.78a7,7,0,0,1,6.7-4.22,4.33,4.33,0,0,1,1.74.29Z"/><path class="cls-1" d="M53.81,33.75a12.42,12.42,0,0,1-.51-3.32,9.18,9.18,0,0,1-3.53,2.78,10.83,10.83,0,0,1-4.54,1,8,8,0,0,1-5.55-1.91,6.23,6.23,0,0,1-2.12-4.83A6.36,6.36,0,0,1,40.46,22q2.89-2,8.05-2h4.77v-2.7a5.21,5.21,0,0,0-1.57-4,6.5,6.5,0,0,0-4.58-1.46,7.17,7.17,0,0,0-4.55,1.41,4.18,4.18,0,0,0-1.8,3.38l-2.64,0a6.11,6.11,0,0,1,2.64-4.91,10.15,10.15,0,0,1,6.48-2.08,9.26,9.26,0,0,1,6.27,2,7.13,7.13,0,0,1,2.36,5.55V28.32a13.93,13.93,0,0,0,.73,5.16v.26Zm-8.26-1.89a8.83,8.83,0,0,0,4.71-1.28,7.51,7.51,0,0,0,3-3.41V22h-4.7a11.79,11.79,0,0,0-6.15,1.44,4.32,4.32,0,0,0-2.22,3.83,4.25,4.25,0,0,0,1.48,3.32A5.59,5.59,0,0,0,45.55,31.86Z"/><path class="cls-1" d="M62.75,3.11a1.76,1.76,0,0,1,.48-1.26,1.72,1.72,0,0,1,1.32-.51,1.76,1.76,0,0,1,1.33.51,1.74,1.74,0,0,1,.49,1.26,1.7,1.7,0,0,1-.49,1.24,1.78,1.78,0,0,1-1.33.5,1.74,1.74,0,0,1-1.32-.5A1.72,1.72,0,0,1,62.75,3.11Zm3.1,30.64H63.21V10h2.64Z"/><path class="cls-1" d="M91.76,12.15H88a7.06,7.06,0,0,1,2,5.14v.4a6.62,6.62,0,0,1-1.14,3.72,7.86,7.86,0,0,1-3.2,2.72,10.21,10.21,0,0,1-4.54,1A11.15,11.15,0,0,1,78,24.7a3.54,3.54,0,0,0-1.6,2.83q0,2.13,2.83,2.13H83.1a10.59,10.59,0,0,1,6.42,1.66,5.61,5.61,0,0,1,.76,8.25,10,10,0,0,1-4.05,2.77,15.56,15.56,0,0,1-5.8,1,12.38,12.38,0,0,1-6.94-1.72,5.19,5.19,0,0,1-2.59-4.47,5.85,5.85,0,0,1,1.18-3.54A8.45,8.45,0,0,1,75.41,31,3.32,3.32,0,0,1,74,28.13,5.22,5.22,0,0,1,76.2,24a7.72,7.72,0,0,1-2.93-2.64,6.55,6.55,0,0,1-1.07-3.63v-.48a6.92,6.92,0,0,1,2.53-5.52A9.48,9.48,0,0,1,81.1,9.54a11.16,11.16,0,0,1,3.16.44h7.45ZM77.7,31.82a5.92,5.92,0,0,0-3,1.93,4.67,4.67,0,0,0-1.16,3,3.62,3.62,0,0,0,1.82,3.16,9.31,9.31,0,0,0,5.1,1.19,13.07,13.07,0,0,0,4.43-.71A7.84,7.84,0,0,0,88,38.49,3.66,3.66,0,0,0,89.12,36q0-4.11-6.13-4.11h-4.5ZM74.82,17.69a4.68,4.68,0,0,0,1.83,3.68,6.73,6.73,0,0,0,4.49,1.55,6.65,6.65,0,0,0,4.44-1.54,4.81,4.81,0,0,0,1.82-3.82v-.35a5,5,0,0,0-1.78-3.85,7.24,7.24,0,0,0-9,0,5.07,5.07,0,0,0-1.79,4Z"/><path class="cls-1" d="M110.94,27.71a3.74,3.74,0,0,0-1.57-3.14,12.12,12.12,0,0,0-4.74-1.86,21.35,21.35,0,0,1-4.91-1.54,6.54,6.54,0,0,1-2.59-2.12,5.29,5.29,0,0,1-.85-3,5.66,5.66,0,0,1,2.35-4.65,9.5,9.5,0,0,1,6-1.83,9.77,9.77,0,0,1,6.38,2,6.31,6.31,0,0,1,2.41,5.13h-2.64a4.26,4.26,0,0,0-1.75-3.47,7.88,7.88,0,0,0-8.57-.23,3.56,3.56,0,0,0-1.57,3,3.24,3.24,0,0,0,1.31,2.76A13.8,13.8,0,0,0,105,20.48a22.47,22.47,0,0,1,5.19,1.74,6.73,6.73,0,0,1,2.56,2.22,5.68,5.68,0,0,1,.83,3.14,5.7,5.7,0,0,1-2.43,4.81,10.38,10.38,0,0,1-6.34,1.8,10.65,10.65,0,0,1-6.73-2,6.19,6.19,0,0,1-2.58-5.09h2.64a4.57,4.57,0,0,0,1.95,3.59A7.94,7.94,0,0,0,104.81,32a7.47,7.47,0,0,0,4.44-1.21A3.63,3.63,0,0,0,110.94,27.71Z"/><path class="cls-1" d="M122.43,33.75h-2.64V0h2.64Z"/><path class="cls-1" d="M129.42,3.11a1.76,1.76,0,0,1,.48-1.26,1.72,1.72,0,0,1,1.32-.51,1.76,1.76,0,0,1,1.33.51A1.74,1.74,0,0,1,133,3.11a1.7,1.7,0,0,1-.49,1.24,1.78,1.78,0,0,1-1.33.5,1.74,1.74,0,0,1-1.32-.5A1.72,1.72,0,0,1,129.42,3.11Zm3.1,30.64h-2.64V10h2.64Z"/><path class="cls-1" d="M153.9,27.71a3.74,3.74,0,0,0-1.57-3.14,12.12,12.12,0,0,0-4.74-1.86,21.35,21.35,0,0,1-4.91-1.54,6.54,6.54,0,0,1-2.59-2.12,5.29,5.29,0,0,1-.85-3,5.66,5.66,0,0,1,2.35-4.65,9.5,9.5,0,0,1,6-1.83,9.77,9.77,0,0,1,6.38,2,6.31,6.31,0,0,1,2.41,5.13h-2.64A4.26,4.26,0,0,0,152,13.16a7.88,7.88,0,0,0-8.57-.23,3.56,3.56,0,0,0-1.57,3,3.24,3.24,0,0,0,1.31,2.76A13.8,13.8,0,0,0,148,20.48a22.47,22.47,0,0,1,5.19,1.74,6.73,6.73,0,0,1,2.56,2.22,5.68,5.68,0,0,1,.83,3.14,5.7,5.7,0,0,1-2.43,4.81,10.38,10.38,0,0,1-6.34,1.8,10.65,10.65,0,0,1-6.73-2,6.19,6.19,0,0,1-2.58-5.09h2.64A4.57,4.57,0,0,0,143,30.69,7.94,7.94,0,0,0,147.77,32a7.47,7.47,0,0,0,4.44-1.21A3.63,3.63,0,0,0,153.9,27.71Z"/><path class="cls-1" d="M166.53,3.89V10h4.92v2.15h-4.92V28a5,5,0,0,0,.71,2.95,2.77,2.77,0,0,0,2.38,1,16.31,16.31,0,0,0,2.13-.22l.11,2.13a8.61,8.61,0,0,1-2.81.37,4.69,4.69,0,0,1-3.93-1.57A7.4,7.4,0,0,1,163.89,28V12.13h-4.37V10h4.37V3.89Z"/></g></g></svg>